<svg xmlns="http://www.w3.org/2000/svg" fill-rule="evenodd" clip-rule="evenodd" image-rendering="optimizeQuality" shape-rendering="geometricPrecision" text-rendering="geometricPrecision" viewBox="0 0 512 512"><path fill="#FFD088" d="M261 80c13 0 51 5 84 60 42 68 131 228 131 228s30 46 26 73v6c0 27-22 49-49 49H69c-27 0-49-22-49-49v-6c-4-27 26-73 26-73s89-160 131-228c33-55 71-60 84-60zm0 352c14 0 25-11 25-25s-11-25-25-25-25 11-25 25 11 25 25 25zm0-254c19 0 35 16 35 35s-16 151-35 151-35-132-35-151 16-35 35-35z"/></svg>