<?xml version="1.0" encoding="UTF-8"?><svg id="_Слой_2" xmlns="http://www.w3.org/2000/svg" viewBox="0 0 1366 193.1"><defs><style>.cls-1{fill:#00205b;}.cls-2{fill:#62b5e5;}</style></defs><g id="_Слой_1-2"><path class="cls-2" d="M804.5,144.45L698.92,2.51h-30.09v188.09h30.09V48.65l105.58,141.94h32.6V2.51h-32.6v141.94h0ZM1007.63,2.51h-135.42v188.09h135.42v-30.1h-105.33v-48.9h72.73v-30.1h-72.73v-48.9h105.33V2.51h0ZM1190.82,37.99c-4.6-8.27-10.83-14.96-18.68-20.06-7.86-5.1-16.72-8.94-26.59-11.53-9.86-2.59-20.48-3.89-31.85-3.89h-75.99v188.09h30.09v-58.93h45.89c6.35,0,11.95-.33,16.8-1l30.09,59.94h30.1l-34.11-66.46c12.7-5.01,22.73-12.37,30.1-22.07,7.35-9.69,11.04-21.65,11.04-35.86,0-10.53-2.3-19.94-6.9-28.21h0ZM1067.82,32.6h45.89c18.56,0,32.19,2.51,40.88,7.52,8.69,5.02,13.04,13.71,13.04,26.08,0,13.38-4.31,22.61-12.92,27.71-8.61,5.1-22.28,7.65-41,7.65h-45.89V32.6h0ZM1238.47,176.93c13.8,10.79,33.31,16.18,58.56,16.18,20.06,0,36.57-4.47,49.53-13.42,12.95-8.94,19.44-21.27,19.44-36.99,0-17.72-5.61-31.22-16.8-40.5-11.21-9.28-26.92-15.76-47.15-19.43l-22.07-4.01c-10.03-1.84-17.52-4.76-22.45-8.78-4.93-4.01-7.4-9.53-7.4-16.55,0-15.55,11.62-23.32,34.86-23.32,15.38,0,27.46,3.59,36.24,10.78,8.78,7.19,13.17,16.97,13.17,29.34h30.1c0-22.73-6.77-40.12-20.32-52.16-13.54-12.04-33.27-18.06-59.18-18.06-19.56,0-35.28,5.01-47.15,15.05-11.87,10.03-17.81,22.82-17.81,38.37s5.05,27.96,15.17,36.74c10.12,8.78,25.04,15.01,44.77,18.68l22.07,4.01c13.37,2.51,22.28,5.81,26.71,9.91,4.43,4.1,6.65,10.74,6.65,19.94,0,6.69-2.85,11.75-8.52,15.17-5.69,3.43-15.64,5.14-29.85,5.14-17.05,0-29.51-2.67-37.37-8.02-7.86-5.35-11.78-14.38-11.78-27.08h-30.09c0,21.91,6.9,38.25,20.69,49.03h0Z"/><path class="cls-1" d="M332.54,102.82c0,10.87-1.34,20.06-4.01,27.58-2.67,7.53-6.61,13.21-11.79,17.06-5.18,3.85-10.78,6.56-16.8,8.15-6.02,1.59-13.04,2.38-21.06,2.38s-15.05-.79-21.07-2.38c-6.02-1.59-11.62-4.3-16.8-8.15-5.18-3.85-9.11-9.53-11.78-17.06-2.68-7.52-4.01-16.71-4.01-27.58V2.51h-30.09v100.31c0,16.72,2.51,31.1,7.52,43.13,5.02,12.04,11.79,21.15,20.32,27.34,8.53,6.19,17.34,10.62,26.46,13.29,9.11,2.67,18.94,4.01,29.47,4.01s20.35-1.34,29.47-4.01c9.11-2.67,17.93-7.1,26.46-13.29,8.53-6.18,15.3-15.3,20.31-27.34,5.02-12.04,7.53-26.41,7.53-43.13V2.51h-30.1v100.31h0ZM533.41,144.45L427.83,2.51h-30.09v188.09h30.09V48.65l105.58,141.94h32.6V2.51h-32.6v141.94h0ZM601.12,2.51v188.09h30.09V2.51h-30.09Z"/><path class="cls-2" d="M153.1,37.99c-4.6-8.27-10.83-14.96-18.68-20.06-7.86-5.1-16.72-8.94-26.58-11.53-9.87-2.59-20.48-3.89-31.85-3.89H0v188.09h30.09v-58.93h45.89c6.35,0,11.95-.33,16.8-1l30.09,59.94h30.1l-34.11-66.46c12.7-5.01,22.73-12.37,30.09-22.07,7.35-9.69,11.03-21.65,11.03-35.86,0-10.53-2.3-19.94-6.9-28.21h0ZM30.09,32.6h45.89c18.56,0,32.18,2.51,40.88,7.52,8.69,5.02,13.04,13.71,13.04,26.08,0,13.38-4.31,22.61-12.92,27.71-8.61,5.1-22.28,7.65-41,7.65H30.09V32.6h0Z"/></g></svg>