<?xml version="1.0" encoding="UTF-8"?><svg id="_Слой_2" xmlns="http://www.w3.org/2000/svg" viewBox="0 0 566.01 188.09"><defs><style>.cls-1{fill:#00205b;}.cls-2{fill:#62b5e5;}</style></defs><g id="_Слой_1-2"><path class="cls-2" d="M332.54,100.31c0,10.87-1.34,20.06-4.01,27.58-2.67,7.53-6.61,13.21-11.79,17.06-5.18,3.85-10.78,6.56-16.8,8.15-6.02,1.59-13.04,2.38-21.06,2.38s-15.05-.79-21.07-2.38c-6.02-1.59-11.62-4.3-16.8-8.15-5.18-3.84-9.11-9.53-11.78-17.06-2.68-7.52-4.01-16.71-4.01-27.58V0h-30.09v100.31c0,16.72,2.51,31.1,7.52,43.13,5.02,12.04,11.79,21.15,20.32,27.33,8.53,6.19,17.34,10.62,26.46,13.29,9.11,2.67,18.94,4.01,29.47,4.01s20.35-1.34,29.47-4.01c9.11-2.67,17.93-7.1,26.46-13.29,8.53-6.18,15.3-15.3,20.31-27.33,5.02-12.04,7.53-26.41,7.53-43.13V0h-30.1v100.31h0ZM533.41,141.94L427.83,0h-30.09v188.09h30.09V46.14l105.58,141.94h32.6V0h-32.6v141.94h0Z"/><path class="cls-1" d="M153.1,35.49c-4.6-8.27-10.83-14.96-18.68-20.06-7.86-5.1-16.72-8.94-26.58-11.53-9.87-2.59-20.48-3.89-31.85-3.89H0v188.09h30.09v-58.93h45.89c6.35,0,11.95-.33,16.8-1l30.09,59.94h30.1l-34.11-66.46c12.7-5.01,22.73-12.37,30.09-22.07,7.35-9.69,11.03-21.65,11.03-35.86,0-10.53-2.3-19.94-6.9-28.21h0ZM30.09,30.09h45.89c18.56,0,32.18,2.51,40.88,7.52,8.69,5.02,13.04,13.71,13.04,26.08,0,13.38-4.31,22.61-12.92,27.71-8.61,5.1-22.28,7.65-41,7.65H30.09V30.09h0Z"/></g></svg>