<svg width="356" height="54" viewBox="0 0 356 54" fill="none" xmlns="http://www.w3.org/2000/svg">
<g filter="url(#filter0_i_18_41)">
<path d="M43.13 18.28C43.13 22.2467 42.08 25.5367 39.98 28.15C37.9267 30.7633 35.08 32.7 31.44 33.96L41.66 53H33.96L24.86 35.43C23.46 35.57 22.0133 35.64 20.52 35.64H7.71V53H0.15V1.34H20.52C27.1 1.34 32.5133 2.78666 36.76 5.68C41.0067 8.52666 43.13 12.7267 43.13 18.28ZM7.71 28.15H20.52C25.7467 28.15 29.55 27.45 31.93 26.05C34.3567 24.6033 35.57 22.0133 35.57 18.28C35.57 14.8267 34.3567 12.4 31.93 11C29.5033 9.6 25.7 8.9 20.52 8.9H7.71V28.15ZM209.309 1.34H217.359V53H209.309L179.839 13.1V53H172.279V1.34H179.839L209.309 41.24V1.34ZM262.012 8.9H232.612V23.39H252.912V30.95H232.612V45.44H262.012V53H225.052V1.34H262.012V8.9ZM311.304 18.28C311.304 22.2467 310.254 25.5367 308.154 28.15C306.1 30.7633 303.254 32.7 299.614 33.96L309.834 53H302.134L293.034 35.43C291.634 35.57 290.187 35.64 288.694 35.64H275.884V53H268.324V1.34H288.694C295.274 1.34 300.687 2.78666 304.934 5.68C309.18 8.52666 311.304 12.7267 311.304 18.28ZM275.884 28.15H288.694C293.92 28.15 297.724 27.45 300.104 26.05C302.53 24.6033 303.744 22.0133 303.744 18.28C303.744 14.8267 302.53 12.4 300.104 11C297.677 9.6 293.874 8.9 288.694 8.9H275.884V28.15ZM314.808 36.34H322.368C322.462 39.8867 323.582 42.3833 325.728 43.83C327.922 45.2767 331.352 46 336.018 46C340.078 46 342.995 45.4633 344.768 44.39C346.542 43.3167 347.428 41.6833 347.428 39.49C347.428 36.8767 346.752 35.01 345.398 33.89C344.092 32.77 341.548 31.8833 337.768 31.23L331.818 30.11C326.358 29.13 322.228 27.4733 319.428 25.14C316.675 22.8067 315.298 19.5167 315.298 15.27C315.298 10.9767 316.932 7.5 320.198 4.84C323.465 2.18 327.782 0.849995 333.148 0.849995C339.822 0.849995 344.978 2.41333 348.618 5.54C352.258 8.66667 354.125 13.17 354.218 19.05H346.658C346.565 15.5967 345.328 12.96 342.948 11.14C340.615 9.27333 337.348 8.34 333.148 8.34C326.288 8.34 322.858 10.65 322.858 15.27C322.858 17.37 323.582 18.98 325.028 20.1C326.475 21.22 328.738 22.06 331.818 22.62L337.768 23.67C343.368 24.6967 347.662 26.4 350.648 28.78C353.635 31.16 355.128 34.73 355.128 39.49C355.128 43.9233 353.332 47.3767 349.738 49.85C346.192 52.3233 341.618 53.56 336.018 53.56C329.392 53.56 324.212 52.1367 320.478 49.29C316.792 46.3967 314.902 42.08 314.808 36.34Z" fill="#6499C1"/>
<path d="M88.3243 1.34H95.8143V29.2C95.8143 33.7267 95.161 37.6233 93.8543 40.89C92.5476 44.11 90.7743 46.56 88.5343 48.24C86.2943 49.92 83.9143 51.1333 81.3943 51.88C78.921 52.6267 76.2376 53 73.3443 53C71.0576 53 68.8876 52.79 66.8343 52.37C64.8276 51.95 62.821 51.18 60.8143 50.06C58.8076 48.94 57.081 47.5167 55.6343 45.79C54.1876 44.0167 53.021 41.73 52.1343 38.93C51.2476 36.0833 50.8043 32.84 50.8043 29.2V1.34H58.3643V29.2C58.3643 32.28 58.7376 34.8933 59.4843 37.04C60.2776 39.14 61.3743 40.75 62.7743 41.87C64.221 42.99 65.7843 43.7833 67.4643 44.25C69.1443 44.7167 71.1043 44.95 73.3443 44.95C75.5843 44.95 77.5443 44.7167 79.2243 44.25C80.9043 43.7833 82.4443 42.99 83.8443 41.87C85.291 40.75 86.3876 39.14 87.1343 37.04C87.9276 34.8933 88.3243 32.28 88.3243 29.2V1.34ZM140.539 1.34H148.589V53H140.539L111.069 13.1V53H103.509V1.34H111.069L140.539 41.24V1.34ZM163.843 1.34V53H156.283V1.34H163.843Z" fill="#001D50"/>
</g>
<defs>
<filter id="filter0_i_18_41" x="0.149994" y="0.849609" width="354.978" height="56.71" filterUnits="userSpaceOnUse" color-interpolation-filters="sRGB">
<feFlood flood-opacity="0" result="BackgroundImageFix"/>
<feBlend mode="normal" in="SourceGraphic" in2="BackgroundImageFix" result="shape"/>
<feColorMatrix in="SourceAlpha" type="matrix" values="0 0 0 0 0 0 0 0 0 0 0 0 0 0 0 0 0 0 127 0" result="hardAlpha"/>
<feOffset dy="4"/>
<feGaussianBlur stdDeviation="2"/>
<feComposite in2="hardAlpha" operator="arithmetic" k2="-1" k3="1"/>
<feColorMatrix type="matrix" values="0 0 0 0 0 0 0 0 0 0 0 0 0 0 0 0 0 0 0.25 0"/>
<feBlend mode="normal" in2="shape" result="effect1_innerShadow_18_41"/>
</filter>
</defs>
</svg>
