<svg xmlns="http://www.w3.org/2000/svg" viewBox="0 0 74 74"><path fill="none" stroke="#000" stroke-linecap="round" stroke-linejoin="round" stroke-width="2" d="M53.3,25.68l5.92,5.86a1,1,0,0,0,.72.31h7.5a3.15,3.15,0,0,1,2.23,5.41,3.09,3.09,0,0,1-2.23.93H57.66a2.9,2.9,0,0,1-2.08-.87l-6-6.05"/><path fill="none" stroke="#000" stroke-linecap="round" stroke-linejoin="round" stroke-width="2" d="M51.81,48.5l.11,19A3.47,3.47,0,0,1,48.57,71h0A3.48,3.48,0,0,1,45,67.54l0-14.67a2.1,2.1,0,0,0-.71-1.56l-9.42-8.38a7.06,7.06,0,0,1-1.07-9.39l7.08-10-9.27-.8a1.52,1.52,0,0,0-1.21.45l-6.65,6.71a2.78,2.78,0,0,1-3.95,0h0a2.79,2.79,0,0,1,0-3.94l8.91-8.76a2.36,2.36,0,0,1,1.67-.69H44.79a4.4,4.4,0,0,1,2.29.64l4.78,2.87a4.13,4.13,0,0,1,1.3,5.83L43.68,40,51.17,47A2,2,0,0,1,51.81,48.5Z"/><path fill="none" stroke="#000" stroke-linecap="round" stroke-linejoin="round" stroke-width="2" d="M33.05,40.5l-6.63,8.17H14.68A3.29,3.29,0,0,0,11.38,52h0a3.3,3.3,0,0,0,3.3,3.3H30.43l7.62-9.46"/><circle cx="56.3" cy="9.46" r="6.46" fill="none" stroke="#000" stroke-linecap="round" stroke-linejoin="round" stroke-width="2"/><line x1="24.33" x2="14" y1="11.58" y2="11.58" fill="none" stroke="#000" stroke-linecap="round" stroke-linejoin="round" stroke-width="2"/><line x1="10.59" x2="9.59" y1="11.58" y2="11.58" fill="none" stroke="#000" stroke-linecap="round" stroke-linejoin="round" stroke-width="2"/><line x1="3" x2="13.33" y1="17.8" y2="17.8" fill="none" stroke="#000" stroke-linecap="round" stroke-linejoin="round" stroke-width="2"/><line x1="16.74" x2="17.74" y1="17.8" y2="17.8" fill="none" stroke="#000" stroke-linecap="round" stroke-linejoin="round" stroke-width="2"/><line x1="10.63" x2="20.96" y1="35.22" y2="35.22" fill="none" stroke="#000" stroke-linecap="round" stroke-linejoin="round" stroke-width="2"/><line x1="24.37" x2="25.37" y1="35.22" y2="35.22" fill="none" stroke="#000" stroke-linecap="round" stroke-linejoin="round" stroke-width="2"/><line x1="17.96" x2="7.63" y1="42" y2="42" fill="none" stroke="#000" stroke-linecap="round" stroke-linejoin="round" stroke-width="2"/><line x1="4.22" x2="3.22" y1="42" y2="42" fill="none" stroke="#000" stroke-linecap="round" stroke-linejoin="round" stroke-width="2"/></svg>