<svg xmlns="http://www.w3.org/2000/svg" xmlns:xlink="http://www.w3.org/1999/xlink" viewBox="0 0 128 128" width="128" height="128" preserveAspectRatio="xMidYMid meet" style="width: 100%; height: 100%; transform: translate3d(0px, 0px, 0px); content-visibility: visible;"><defs><clipPath id="__lottie_element_17992"><rect width="128" height="128" x="0" y="0"></rect></clipPath></defs><g clip-path="url(#__lottie_element_17992)"><g transform="matrix(1,0,0,1,66,64)" opacity="1" style="display: block;"><g opacity="1" transform="matrix(1,0,0,1,0,0)"><path stroke-linecap="round" stroke-linejoin="round" fill-opacity="0" stroke="rgb(120,187,19)" stroke-opacity="1" stroke-width="4" d=" M-27.6560001373291,9.75 C-33.46799850463867,9.75 -37.25,9.75 -37.25,9.75 M33.25,9.75 C33.25,9.75 29.22800064086914,9.75 23.106000900268555,9.75"></path></g></g><g transform="matrix(0.9945219159126282,0.10452846437692642,-0.10452846437692642,0.9945219159126282,50.357181549072266,59.6954231262207)" opacity="1" style="display: block;"><g opacity="1" transform="matrix(1,0,0,1,17.81399917602539,19.5)"><path stroke-linecap="round" stroke-linejoin="round" fill-opacity="0" stroke="rgb(120,187,19)" stroke-opacity="1" stroke-width="8" d=" M-9.814000129699707,-11.5 C-9.814000129699707,-11.5 4.369999885559082,-6.49399995803833 4.369999885559082,-6.49399995803833 C9.031999588012695,-4.8480000495910645 9.8149995803833,1.4140000343322754 5.701000213623047,4.156000137329102 C5.701000213623047,4.156000137329102 -5.314000129699707,11.5 -5.314000129699707,11.5"></path></g></g><g transform="matrix(0.9945219159126282,0.10452846437692642,-0.10452846437692642,0.9945219159126282,27.430912017822266,57.78852844238281)" opacity="1" style="display: block;"><g opacity="1" transform="matrix(1,0,0,1,19.25,21.75)"><path stroke-linecap="round" stroke-linejoin="round" fill-opacity="0" stroke="rgb(163,255,1)" stroke-opacity="1" stroke-width="8" d=" M11.25,-13.75 C11.25,-13.75 4.455999851226807,-0.6140000224113464 4.455999851226807,-0.6140000224113464 C3.990000009536743,0.28700000047683716 3.3559999465942383,1.090999960899353 2.5889999866485596,1.75600004196167 C2.5889999866485596,1.75600004196167 -11.25,13.75 -11.25,13.75"></path></g></g><g transform="matrix(0.9945219159126282,0.10452846437692642,-0.10452846437692642,0.9945219159126282,41.53339385986328,33.63029861450195)" opacity="1" style="display: block;"><g opacity="1" transform="matrix(1,0,0,1,17.75,15.5)"><path stroke-linecap="round" stroke-linejoin="round" fill-opacity="0" stroke="rgb(120,187,19)" stroke-opacity="1" stroke-width="8" d=" M9.75,-7.5 C9.75,-7.5 -1.0099999904632568,-7.5 -1.0099999904632568,-7.5 C-5.119999885559082,-7.5 -8.560999870300293,-4.386000156402588 -8.970000267028809,-0.29600000381469727 C-8.970000267028809,-0.29600000381469727 -9.75,7.5 -9.75,7.5"></path></g></g><g transform="matrix(0.9945219159126282,0.10452846437692642,-0.10452846437692642,0.9945219159126282,61.92108917236328,35.77313232421875)" opacity="1" style="display: block;"><g opacity="1" transform="matrix(1,0,0,1,21.25,15.15999984741211)"><path stroke-linecap="round" stroke-linejoin="round" fill-opacity="0" stroke="rgb(163,255,1)" stroke-opacity="1" stroke-width="8" d=" M13.25,-1.159999966621399 C13.25,-1.159999966621399 6.025000095367432,4.459000110626221 6.025000095367432,4.459000110626221 C2.552999973297119,7.159999847412109 -2.447999954223633,6.550000190734863 -5.170000076293945,3.0950000286102295 C-5.170000076293945,3.0950000286102295 -13.25,-7.159999847412109 -13.25,-7.159999847412109"></path></g></g><g transform="matrix(0.9945219159126282,0.10452846437692642,-0.10452846437692642,0.9945219159126282,55.0385856628418,39.07178497314453)" opacity="1" style="display: block;"><g opacity="1" transform="matrix(1,0,0,1,9.75,16.600000381469727)"><path stroke-linecap="round" stroke-linejoin="round" fill-opacity="0" stroke="rgb(163,255,1)" stroke-opacity="1" stroke-width="10" d=" M4.75,-11.600000381469727 C4.75,-11.600000381469727 -4.75,11.600000381469727 -4.75,11.600000381469727"></path></g></g><g transform="matrix(0.9945219159126282,0.10452846437692642,-0.10452846437692642,0.9945219159126282,70.59552001953125,27.383899688720703)" opacity="1" style="display: block;"><g opacity="1" transform="matrix(1,0,0,1,6.25,6.25)"><path fill="rgb(163,255,1)" fill-opacity="1" d=" M0,-6 C3.313999891281128,-6 6,-3.313999891281128 6,0 C6,3.313999891281128 3.313999891281128,6 0,6 C-3.313999891281128,6 -6,3.313999891281128 -6,0 C-6,-3.313999891281128 -3.313999891281128,-6 0,-6z"></path></g></g></g></svg>