<svg xmlns="http://www.w3.org/2000/svg" data-name="Layer 1" viewBox="0 0 512 512"><path fill="#272a33" d="M59.5 374.657h31a14.517 14.517 0 0 0 14.5-14.5v-31a14.517 14.517 0 0 0-14.5-14.5h-31a14.517 14.517 0 0 0-14.5 14.5v31a14.517 14.517 0 0 0 14.5 14.5Zm.5-45h30v30H60Zm222.082-6.953a85.965 85.965 0 1 0-60.815-25.15 85.736 85.736 0 0 0 60.815 25.15Zm-.844-90.547h-69.963a70.925 70.925 0 0 1 8.808-30h61.155a7.5 7.5 0 0 0 0-15h-49.96c.202-.207.391-.422.596-.627a71.006 71.006 0 0 1 100.417 100.417h-.001a70.966 70.966 0 0 1-120.413-39.79h69.361a7.5 7.5 0 0 0 0-15ZM114.627 46.584a7.5 7.5 0 1 0 7.5 7.5 7.5 7.5 0 0 0-7.5-7.5Zm22.5 208.073a7.5 7.5 0 0 0 7.5 7.5h24.545a115.834 115.834 0 0 0 175.75 71.82l10.707 10.709a10.872 10.872 0 0 0 .518 14.794l67.096 67.095A34.419 34.419 0 1 0 471.92 377.9l-67.097-67.096a10.873 10.873 0 0 0-14.792-.517l-10.708-10.708a115.775 115.775 0 0 0-179.103-144.702q-1.129 1.128-2.217 2.281h-53.375a7.5 7.5 0 0 0 0 15h41.365a115.853 115.853 0 0 0-19.156 75h-22.209a7.5 7.5 0 0 0-7.5 7.5Zm258.169 71.521.01-.009.009-.01 1.825-1.825 64.172 64.173a19.439 19.439 0 0 1 0 27.462 19.416 19.416 0 0 1-27.461 0l-64.173-64.173Zm-15.901-5.313-13.187 13.187-9.122-9.123q3.524-3.002 6.86-6.326 3.329-3.33 6.326-6.86Zm-168.57-155.382a100.772 100.772 0 1 1 .001 142.513 100.458 100.458 0 0 1 0-142.513ZM474.5-.343h-437A37.542 37.542 0 0 0 0 37.157v437a37.542 37.542 0 0 0 37.5 37.5h437a37.542 37.542 0 0 0 37.5-37.5v-437a37.542 37.542 0 0 0-37.5-37.5Zm22.5 474.5a22.526 22.526 0 0 1-22.5 22.5h-437a22.526 22.526 0 0 1-22.5-22.5v-369.5h482Zm0-384.5H15v-52.5a22.526 22.526 0 0 1 22.5-22.5h437a22.526 22.526 0 0 1 22.5 22.5ZM84.627 46.584a7.5 7.5 0 1 0 7.5 7.5 7.5 7.5 0 0 0-7.5-7.5ZM59.5 284.657h31a14.517 14.517 0 0 0 14.5-14.5v-31a14.517 14.517 0 0 0-14.5-14.5h-31a14.517 14.517 0 0 0-14.5 14.5v31a14.517 14.517 0 0 0 14.5 14.5Zm.5-45h30v30H60Zm-.5 225h31a14.517 14.517 0 0 0 14.5-14.5v-31a14.517 14.517 0 0 0-14.5-14.5h-31a14.517 14.517 0 0 0-14.5 14.5v31a14.517 14.517 0 0 0 14.5 14.5Zm.5-45h30v30H60Zm-.5-225h31a14.517 14.517 0 0 0 14.5-14.5v-31a14.517 14.517 0 0 0-14.5-14.5h-31a14.517 14.517 0 0 0-14.5 14.5v31a14.517 14.517 0 0 0 14.5 14.5Zm.5-45h30v30H60Zm84.627 292.5H399.5a7.5 7.5 0 0 0 0-15H144.627a7.5 7.5 0 1 0 0 15Zm-90-395.573a7.5 7.5 0 1 0 7.5 7.5 7.5 7.5 0 0 0-7.5-7.5Zm90 305.573h46.611a7.5 7.5 0 1 0 0-15h-46.611a7.5 7.5 0 1 0 0 15Z"/></svg>