<?xml version="1.0" encoding="utf-8"?><!-- Uploaded to: SVG Repo, www.svgrepo.com, Generator: SVG Repo Mixer Tools -->
<svg width="800px" height="800px" viewBox="0 -0.5 25 25" fill="none" xmlns="http://www.w3.org/2000/svg">
<path d="M22.7353 10.112L23.0133 9.837C23.1226 9.72871 23.1986 9.59137 23.2322 9.44125C23.2658 9.29114 23.2557 9.13452 23.2031 8.98996C23.1505 8.84539 23.0576 8.71893 22.9353 8.62554C22.8131 8.53215 22.6666 8.47574 22.5133 8.463L16.0733 7.825L12.7323 1.2C12.6636 1.0658 12.5592 0.953173 12.4306 0.874523C12.3019 0.795874 12.1541 0.754257 12.0033 0.754257C11.8526 0.754257 11.7047 0.795874 11.5761 0.874523C11.4475 0.953173 11.343 1.0658 11.2743 1.2L7.92834 7.825L1.48833 8.463C1.33502 8.47574 1.18857 8.53215 1.06632 8.62554C0.944069 8.71893 0.851139 8.84539 0.798531 8.98996C0.745923 9.13452 0.735841 9.29114 0.769479 9.44125C0.803118 9.59137 0.879067 9.72871 0.988335 9.837L6.28833 15.09L4.33233 22.228C4.29213 22.3794 4.29652 22.5392 4.34498 22.6882C4.39344 22.8371 4.48391 22.9689 4.60549 23.0677C4.72708 23.1665 4.87461 23.228 5.03035 23.2449C5.18608 23.2618 5.34338 23.2334 5.48334 23.163L9.13623 21.3537" stroke="#71717A" stroke-width="1.5" stroke-linecap="round" stroke-linejoin="round"/>
<path d="M17.2529 23.25C20.5666 23.25 23.2529 20.5637 23.2529 17.25C23.2529 13.9363 20.5666 11.25 17.2529 11.25C13.9392 11.25 11.2529 13.9363 11.2529 17.25C11.2529 20.5637 13.9392 23.25 17.2529 23.25Z" stroke="#71717A" stroke-width="1.5" stroke-linecap="round" stroke-linejoin="round"/>
<path d="M14.3906 17.96L15.8906 19.46C15.9668 19.5358 16.0584 19.5943 16.1591 19.6317C16.2598 19.6691 16.3674 19.6845 16.4746 19.6768C16.5817 19.6691 16.686 19.6386 16.7804 19.5872C16.8747 19.5358 16.957 19.4648 17.0216 19.379L19.8643 15.589" stroke="#71717A" stroke-width="1.5" stroke-linecap="round" stroke-linejoin="round"/>
</svg>