<?xml version="1.0" encoding="UTF-8" standalone="no"?>
<svg
   xmlns:dc="http://purl.org/dc/elements/1.1/"
   xmlns:cc="http://creativecommons.org/ns#"
   xmlns:rdf="http://www.w3.org/1999/02/22-rdf-syntax-ns#"
   xmlns:svg="http://www.w3.org/2000/svg"
   xmlns="http://www.w3.org/2000/svg"
   viewBox="0 0 816 1056"
   height="1056"
   width="816"
   xml:space="preserve"
   id="svg2"
   version="1.1"><metadata
     id="metadata8"><rdf:RDF><cc:Work
         rdf:about=""><dc:format>image/svg+xml</dc:format><dc:type
           rdf:resource="http://purl.org/dc/dcmitype/StillImage" /></cc:Work></rdf:RDF></metadata><defs
     id="defs6" /><g
     transform="matrix(1.3333333,0,0,-1.3333333,0,1056)"
     id="g10"><g
       transform="scale(0.1)"
       id="g12"><path
         id="path14"
         style="fill:#6899c6;fill-opacity:1;fill-rule:nonzero;stroke:none"
         d="m 1858.81,4879.81 c 0,-39.58 -4.88,-73.05 -14.61,-100.44 -9.74,-27.4 -24.06,-48.1 -42.92,-62.1 -18.87,-14.01 -39.26,-23.89 -61.18,-29.67 -21.91,-5.8 -47.48,-8.68 -76.7,-8.68 -29.22,0 -54.79,2.88 -76.71,8.68 -21.91,5.78 -42.31,15.66 -61.18,29.67 -18.87,14 -33.18,34.7 -42.91,62.1 -9.75,27.39 -14.61,60.86 -14.61,100.44 v 365.26 h -109.58 v -365.26 c 0,-60.88 9.13,-113.23 27.39,-157.06 18.27,-43.83 42.92,-77.02 73.97,-99.53 31.05,-22.53 63.15,-38.67 96.33,-48.4 33.18,-9.74 68.95,-14.61 107.3,-14.61 38.35,0 74.11,4.87 107.29,14.61 33.18,9.73 65.29,25.87 96.34,48.4 31.05,22.51 55.7,55.7 73.96,99.53 18.27,43.83 27.4,96.18 27.4,157.06 v 365.26 h -109.58 z m 731.41,-151.58 -384.43,516.84 h -109.58 v -684.86 h 109.58 v 516.84 l 384.43,-516.84 h 118.71 v 684.86 h -118.71 v -516.84" /><path
         id="path16"
         style="fill:#17213f;fill-opacity:1;fill-rule:nonzero;stroke:none"
         d="m 1205.47,5115.86 c -16.75,30.13 -39.42,54.47 -68.03,73.05 -28.62,18.56 -60.88,32.56 -96.79,42 -35.93,9.44 -74.58,14.16 -115.97,14.16 H 648 V 4560.21 H 757.578 V 4774.8 H 924.68 c 23.129,0 43.519,1.21 61.183,3.65 l 109.577,-218.24 h 109.58 l -124.19,241.99 c 46.25,18.26 82.78,45.04 109.58,80.35 26.78,35.3 40.17,78.83 40.17,130.58 0,38.35 -8.37,72.6 -25.11,102.73 z m -447.892,19.63 H 924.68 c 67.574,0 117.18,-9.13 148.84,-27.39 31.65,-18.27 47.49,-49.93 47.49,-94.97 0,-48.71 -15.68,-82.34 -47.03,-100.9 -31.36,-18.58 -81.128,-27.85 -149.3,-27.85 H 757.578 v 251.11" /><path
         id="path18"
         style="fill:#6899c6;fill-opacity:1;fill-rule:nonzero;stroke:none"
         d="m 3577.29,6170.03 -384.43,516.84 h -109.57 v -684.86 h 109.57 v 516.84 l 384.43,-516.84 H 3696 v 684.86 h -118.71 z m 739.63,516.84 h -493.1 v -684.86 h 493.1 v 109.58 H 3933.4 v 178.06 h 264.81 v 109.58 H 3933.4 v 178.06 h 383.52 z m 667.03,-129.21 c -16.75,30.13 -39.42,54.47 -68.02,73.05 -28.63,18.56 -60.89,32.56 -96.8,42 -35.92,9.44 -74.58,14.16 -115.97,14.16 h -276.68 v -684.86 h 109.58 v 214.59 h 167.1 c 23.13,0 43.52,1.21 61.18,3.65 l 109.58,-218.24 H 4983.5 L 4859.31,6244 c 46.26,18.26 82.78,45.04 109.58,80.35 26.78,35.3 40.18,78.83 40.18,130.58 0,38.35 -8.38,72.6 -25.12,102.73 z m -447.89,19.63 h 167.1 c 67.58,0 117.19,-9.13 148.85,-27.39 31.64,-18.27 47.48,-49.93 47.48,-94.97 0,-48.71 -15.68,-82.34 -47.03,-100.9 -31.36,-18.58 -81.12,-27.85 -149.3,-27.85 h -167.1 z m 621.39,-525.51 c 50.23,-39.27 121.3,-58.9 213.22,-58.9 73.05,0 133.16,16.28 180.35,48.86 47.17,32.55 70.77,77.46 70.77,134.68 0,64.52 -20.41,113.69 -61.18,147.48 -40.8,33.78 -98.02,57.37 -171.67,70.76 l -80.36,14.61 c -36.53,6.7 -63.78,17.35 -81.73,31.96 -17.96,14.61 -26.93,34.7 -26.93,60.27 0,56.62 42.3,84.92 126.92,84.92 56,0 99.99,-13.09 131.95,-39.26 31.96,-26.18 47.94,-61.8 47.94,-106.84 h 109.58 c 0,82.78 -24.66,146.1 -73.97,189.93 -49.31,43.83 -121.14,65.75 -215.5,65.75 -71.22,0 -128.45,-18.26 -171.67,-54.79 -43.23,-36.52 -64.83,-83.09 -64.83,-139.71 0,-57.23 18.4,-101.81 55.24,-133.77 36.83,-31.96 91.16,-54.65 163,-68.03 l 80.36,-14.61 c 48.69,-9.13 81.11,-21.16 97.24,-36.07 16.13,-14.93 24.2,-39.12 24.2,-72.6 0,-24.35 -10.36,-42.77 -31.04,-55.24 -20.71,-12.49 -56.93,-18.72 -108.67,-18.72 -62.09,0 -107.45,9.73 -136.06,29.22 -28.62,19.48 -42.91,52.35 -42.91,98.62 h -109.58 c 0,-79.76 25.11,-139.26 75.33,-178.52" /><path
         id="path20"
         style="fill:#17213f;fill-opacity:1;fill-rule:nonzero;stroke:none"
         d="m 1858.81,6321.61 c 0,-39.58 -4.88,-73.05 -14.61,-100.44 -9.74,-27.4 -24.06,-48.1 -42.92,-62.1 -18.87,-14.01 -39.26,-23.89 -61.18,-29.67 -21.91,-5.8 -47.48,-8.68 -76.7,-8.68 -29.22,0 -54.79,2.88 -76.71,8.68 -21.91,5.78 -42.31,15.66 -61.18,29.67 -18.87,14 -33.18,34.7 -42.91,62.1 -9.75,27.39 -14.61,60.86 -14.61,100.44 v 365.26 h -109.58 v -365.26 c 0,-60.88 9.13,-113.23 27.39,-157.06 18.27,-43.83 42.92,-77.02 73.97,-99.53 31.05,-22.53 63.15,-38.67 96.33,-48.4 33.18,-9.74 68.95,-14.61 107.3,-14.61 38.35,0 74.11,4.87 107.29,14.61 33.18,9.73 65.29,25.87 96.34,48.4 31.05,22.51 55.7,55.7 73.96,99.53 18.27,43.83 27.4,96.18 27.4,157.06 v 365.26 h -109.58 z m 731.41,-151.58 -384.43,516.84 h -109.58 v -684.86 h 109.58 v 516.84 l 384.43,-516.84 h 118.71 v 684.86 h -118.71 z m 246.53,516.84 v -684.86 h 109.57 v 684.86 h -109.57" /><path
         id="path22"
         style="fill:#6899c6;fill-opacity:1;fill-rule:nonzero;stroke:none"
         d="m 1205.47,6557.66 c -16.75,30.13 -39.42,54.47 -68.03,73.05 -28.62,18.56 -60.88,32.56 -96.79,42 -35.93,9.44 -74.58,14.16 -115.97,14.16 H 648 V 6002.01 H 757.578 V 6216.6 H 924.68 c 23.129,0 43.519,1.21 61.183,3.65 l 109.577,-218.24 h 109.58 L 1080.83,6244 c 46.25,18.26 82.78,45.04 109.58,80.35 26.78,35.3 40.17,78.83 40.17,130.58 0,38.35 -8.37,72.6 -25.11,102.73 z m -447.892,19.63 H 924.68 c 67.574,0 117.18,-9.13 148.84,-27.39 31.65,-18.27 47.49,-49.93 47.49,-94.97 0,-48.71 -15.68,-82.34 -47.03,-100.9 -31.36,-18.58 -81.128,-27.85 -149.3,-27.85 H 757.578 v 251.11" /></g></g></svg>