<svg width="49" height="49" viewBox="0 0 49 49" fill="none" xmlns="http://www.w3.org/2000/svg">
<path d="M24.5 27.5625C28.7284 27.5625 32.1562 24.1347 32.1562 19.9062C32.1562 15.6778 28.7284 12.25 24.5 12.25C20.2716 12.25 16.8438 15.6778 16.8438 19.9062C16.8438 24.1347 20.2716 27.5625 24.5 27.5625Z" fill="#00205B"/>
<path fill-rule="evenodd" clip-rule="evenodd" d="M24.5 49C38.031 49 49 38.031 49 24.5C49 10.969 38.031 0 24.5 0C10.969 0 0 10.969 0 24.5C0 38.031 10.969 49 24.5 49ZM18.375 30.625C14.7089 30.625 11.5443 32.7723 10.0703 35.8778C7.59961 32.7486 6.125 28.7965 6.125 24.5C6.125 14.3518 14.3518 6.125 24.5 6.125C34.6482 6.125 42.875 14.3518 42.875 24.5C42.875 28.7965 41.4004 32.7486 38.9297 35.8778C37.4557 32.7723 34.2911 30.625 30.625 30.625H18.375Z" fill="#00205B"/>
</svg>
