<svg width="149" height="52" viewBox="0 0 149 52" fill="none" xmlns="http://www.w3.org/2000/svg">
<g filter="url(#filter0_i_18_58)">
<path d="M43.13 17.28C43.13 21.2467 42.08 24.5367 39.98 27.15C37.9267 29.7633 35.08 31.7 31.44 32.96L41.66 52H33.96L24.86 34.43C23.46 34.57 22.0133 34.64 20.52 34.64H7.71V52H0.15V0.339998H20.52C27.1 0.339998 32.5133 1.78666 36.76 4.68C41.0067 7.52666 43.13 11.7267 43.13 17.28ZM7.71 27.15H20.52C25.7467 27.15 29.55 26.45 31.93 25.05C34.3567 23.6033 35.57 21.0133 35.57 17.28C35.57 13.8267 34.3567 11.4 31.93 10C29.5033 8.6 25.7 7.9 20.52 7.9H7.71V27.15Z" fill="#001D50"/>
<path d="M88.3243 0.339998H95.8143V28.2C95.8143 32.7267 95.161 36.6233 93.8543 39.89C92.5476 43.11 90.7743 45.56 88.5343 47.24C86.2943 48.92 83.9143 50.1333 81.3943 50.88C78.921 51.6267 76.2376 52 73.3443 52C71.0576 52 68.8876 51.79 66.8343 51.37C64.8276 50.95 62.821 50.18 60.8143 49.06C58.8076 47.94 57.081 46.5167 55.6343 44.79C54.1876 43.0167 53.021 40.73 52.1343 37.93C51.2476 35.0833 50.8043 31.84 50.8043 28.2V0.339998H58.3643V28.2C58.3643 31.28 58.7376 33.8933 59.4843 36.04C60.2776 38.14 61.3743 39.75 62.7743 40.87C64.221 41.99 65.7843 42.7833 67.4643 43.25C69.1443 43.7167 71.1043 43.95 73.3443 43.95C75.5843 43.95 77.5443 43.7167 79.2243 43.25C80.9043 42.7833 82.4443 41.99 83.8443 40.87C85.291 39.75 86.3876 38.14 87.1343 36.04C87.9276 33.8933 88.3243 31.28 88.3243 28.2V0.339998ZM140.539 0.339998H148.589V52H140.539L111.069 12.1V52H103.509V0.339998H111.069L140.539 40.24V0.339998Z" fill="#6499C1"/>
</g>
<defs>
<filter id="filter0_i_18_58" x="0.149994" y="0.339844" width="148.439" height="55.6602" filterUnits="userSpaceOnUse" color-interpolation-filters="sRGB">
<feFlood flood-opacity="0" result="BackgroundImageFix"/>
<feBlend mode="normal" in="SourceGraphic" in2="BackgroundImageFix" result="shape"/>
<feColorMatrix in="SourceAlpha" type="matrix" values="0 0 0 0 0 0 0 0 0 0 0 0 0 0 0 0 0 0 127 0" result="hardAlpha"/>
<feOffset dy="4"/>
<feGaussianBlur stdDeviation="2"/>
<feComposite in2="hardAlpha" operator="arithmetic" k2="-1" k3="1"/>
<feColorMatrix type="matrix" values="0 0 0 0 0 0 0 0 0 0 0 0 0 0 0 0 0 0 0.25 0"/>
<feBlend mode="normal" in2="shape" result="effect1_innerShadow_18_58"/>
</filter>
</defs>
</svg>
